HIERARCHY
ROOT Hips
{
    OFFSET   0.000000   0.000000   0.000000
    CHANNELS 6 Xposition Yposition Zposition Zrotation Xrotation Yrotation
    JOINT Chest
    {
        OFFSET   0.000000   8.007230   0.000000
        CHANNELS 3 Zrotation Xrotation Yrotation
        JOINT Chest2
        {
            OFFSET   0.000000  22.077100   0.000000
            CHANNELS 3 Zrotation Xrotation Yrotation
            JOINT Neck
            {
                OFFSET   0.000000  23.254800  -0.000021
                CHANNELS 3 Zrotation Xrotation Yrotation
                JOINT Head
                {
                    OFFSET   0.000000  14.370000   1.956610
                    CHANNELS 3 Zrotation Xrotation Yrotation
                    End Site
                    {
                        OFFSET   0.000000  19.566000   0.000000
                    }
                }
            }
            JOINT LeftCollar
            {
                OFFSET   3.911900  19.017000  -0.467063
                CHANNELS 3 Zrotation Xrotation Yrotation
                JOINT LeftShoulder
                {
                    OFFSET  10.383700   0.000000   0.000000
                    CHANNELS 3 Zrotation Xrotation Yrotation
                    JOINT LeftElbow
                    {
                        OFFSET  26.662100   0.001529   0.000325
                        CHANNELS 3 Zrotation Xrotation Yrotation
                        JOINT LeftWrist
                        {
                            OFFSET  28.869000  -0.000011  -0.000096
                            CHANNELS 3 Zrotation Xrotation Yrotation
                            JOINT LeftFinger0
                            {
                                OFFSET   2.044650  -2.323460   3.252850
                                CHANNELS 3 Zrotation Xrotation Yrotation
                                JOINT LeftFinger01
                                {
                                    OFFSET   3.088130   0.000000   0.000000
                                    CHANNELS 3 Zrotation Xrotation Yrotation
                                    JOINT LeftFinger02
                                    {
                                        OFFSET   2.639460   0.000000   0.000000
                                        CHANNELS 3 Zrotation Xrotation Yrotation
                                        End Site
                                        {
                                            OFFSET   2.582190   0.000000   0.000000
                                        }
                                    }
                                }
                            }
                            JOINT LeftFinger1
                            {
                                OFFSET   8.364480   0.000000   3.252850
                                CHANNELS 3 Zrotation Xrotation Yrotation
                                JOINT LeftFinger11
                                {
                                    OFFSET   4.646930   0.000000   0.000000
                                    CHANNELS 3 Zrotation Xrotation Yrotation
                                    JOINT LeftFinger12
                                    {
                                        OFFSET   2.323460   0.000000   0.000000
                                        CHANNELS 3 Zrotation Xrotation Yrotation
                                        End Site
                                        {
                                            OFFSET   2.273050   0.000000   0.000000
                                        }
                                    }
                                }
                            }
                            JOINT LeftFinger2
                            {
                                OFFSET   8.364480   0.000016   1.078090
                                CHANNELS 3 Zrotation Xrotation Yrotation
                                JOINT LeftFinger21
                                {
                                    OFFSET   5.111620   0.000000   0.000000
                                    CHANNELS 3 Zrotation Xrotation Yrotation
                                    JOINT LeftFinger22
                                    {
                                        OFFSET   2.788160   0.000017   0.000000
                                        CHANNELS 3 Zrotation Xrotation Yrotation
                                        End Site
                                        {
                                            OFFSET   2.727660   0.000000   0.000000
                                        }
                                    }
                                }
                            }
                            JOINT LeftFinger3
                            {
                                OFFSET   7.899780   0.000015  -1.078090
                                CHANNELS 3 Zrotation Xrotation Yrotation
                                JOINT LeftFinger31
                                {
                                    OFFSET   4.646920   0.000000   0.000000
                                    CHANNELS 3 Zrotation Xrotation Yrotation
                                    JOINT LeftFinger32
                                    {
                                        OFFSET   2.323470   0.000000   0.000000
                                        CHANNELS 3 Zrotation Xrotation Yrotation
                                        End Site
                                        {
                                            OFFSET   2.273050   0.000000   0.000000
                                        }
                                    }
                                }
                            }
                            JOINT LeftFinger4
                            {
                                OFFSET   7.435090   0.000000  -3.252850
                                CHANNELS 3 Zrotation Xrotation Yrotation
                                JOINT LeftFinger41
                                {
                                    OFFSET   3.717550   0.000000   0.000000
                                    CHANNELS 3 Zrotation Xrotation Yrotation
                                    JOINT LeftFinger42
                                    {
                                        OFFSET   1.858760   0.000000   0.000000
                                        CHANNELS 3 Zrotation Xrotation Yrotation
                                        End Site
                                        {
                                            OFFSET   1.818440   0.000000   0.000000
                                        }
                                    }
                                }
                            }
                        }
                    }
                }
            }
            JOINT RightCollar
            {
                OFFSET  -3.911900  19.017000  -0.467062
                CHANNELS 3 Zrotation Xrotation Yrotation
                JOINT RightShoulder
                {
                    OFFSET -10.383700   0.000015   0.000000
                    CHANNELS 3 Zrotation Xrotation Yrotation
                    JOINT RightElbow
                    {
                        OFFSET -26.662100   0.001341   0.000385
                        CHANNELS 3 Zrotation Xrotation Yrotation
                        JOINT RightWrist
                        {
                            OFFSET -28.869000   0.000025  -0.000080
                            CHANNELS 3 Zrotation Xrotation Yrotation
                            JOINT RightFinger0
                            {
                                OFFSET  -2.044650  -2.323490   3.252850
                                CHANNELS 3 Zrotation Xrotation Yrotation
                                JOINT RightFinger01
                                {
                                    OFFSET  -3.088130   0.000000   0.000000
                                    CHANNELS 3 Zrotation Xrotation Yrotation
                                    JOINT RightFinger02
                                    {
                                        OFFSET  -2.639460   0.000000   0.000000
                                        CHANNELS 3 Zrotation Xrotation Yrotation
                                        End Site
                                        {
                                            OFFSET  -2.582190   0.000000   0.000000
                                        }
                                    }
                                }
                            }
                            JOINT RightFinger1
                            {
                                OFFSET  -8.364480   0.000000   3.252850
                                CHANNELS 3 Zrotation Xrotation Yrotation
                                JOINT RightFinger11
                                {
                                    OFFSET  -4.646930   0.000000   0.000000
                                    CHANNELS 3 Zrotation Xrotation Yrotation
                                    JOINT RightFinger12
                                    {
                                        OFFSET  -2.323470   0.000000   0.000000
                                        CHANNELS 3 Zrotation Xrotation Yrotation
                                        End Site
                                        {
                                            OFFSET  -2.273050   0.000000   0.000000
                                        }
                                    }
                                }
                            }
                            JOINT RightFinger2
                            {
                                OFFSET  -8.364480   0.000000   1.078090
                                CHANNELS 3 Zrotation Xrotation Yrotation
                                JOINT RightFinger21
                                {
                                    OFFSET  -5.111610   0.000000   0.000000
                                    CHANNELS 3 Zrotation Xrotation Yrotation
                                    JOINT RightFinger22
                                    {
                                        OFFSET  -2.788160   0.000000   0.000000
                                        CHANNELS 3 Zrotation Xrotation Yrotation
                                        End Site
                                        {
                                            OFFSET  -2.727660   0.000000   0.000000
                                        }
                                    }
                                }
                            }
                            JOINT RightFinger3
                            {
                                OFFSET  -7.899780   0.000000  -1.078090
                                CHANNELS 3 Zrotation Xrotation Yrotation
                                JOINT RightFinger31
                                {
                                    OFFSET  -4.646920   0.000000   0.000000
                                    CHANNELS 3 Zrotation Xrotation Yrotation
                                    JOINT RightFinger32
                                    {
                                        OFFSET  -2.323470   0.000000   0.000000
                                        CHANNELS 3 Zrotation Xrotation Yrotation
                                        End Site
                                        {
                                            OFFSET  -2.273050   0.000000   0.000000
                                        }
                                    }
                                }
                            }
                            JOINT RightFinger4
                            {
                                OFFSET  -7.435090   0.000000  -3.252850
                                CHANNELS 3 Zrotation Xrotation Yrotation
                                JOINT RightFinger41
                                {
                                    OFFSET  -3.717550   0.000000   0.000000
                                    CHANNELS 3 Zrotation Xrotation Yrotation
                                    JOINT RightFinger42
                                    {
                                        OFFSET  -1.858770   0.000000   0.000000
                                        CHANNELS 3 Zrotation Xrotation Yrotation
                                        End Site
                                        {
                                            OFFSET  -1.818440   0.000000   0.000000
                                        }
                                    }
                                }
                            }
                        }
                    }
                }
            }
        }
    }
    JOINT LeftHip
    {
        OFFSET   9.783010   0.000000   0.000000
        CHANNELS 3 Zrotation Xrotation Yrotation
        JOINT LeftKnee
        {
            OFFSET   0.000070 -41.789100   0.000028
            CHANNELS 3 Zrotation Xrotation Yrotation
            JOINT LeftAnkle
            {
                OFFSET   0.000087 -41.133200  -0.000100
                CHANNELS 3 Zrotation Xrotation Yrotation
                JOINT LeftToe
                {
                    OFFSET   0.000000  -6.358960  14.674500
                    CHANNELS 3 Zrotation Xrotation Yrotation
                    End Site
                    {
                        OFFSET   0.000000   0.000000   3.913200
                    }
                }
            }
        }
    }
    JOINT RightHip
    {
        OFFSET  -9.783020   0.000000   0.000000
        CHANNELS 3 Zrotation Xrotation Yrotation
        JOINT RightKnee
        {
            OFFSET   0.000044 -41.789100  -0.000870
            CHANNELS 3 Zrotation Xrotation Yrotation
            JOINT RightAnkle
            {
                OFFSET  -0.000090 -41.133200  -0.000245
                CHANNELS 3 Zrotation Xrotation Yrotation
                JOINT RightToe
                {
                    OFFSET   0.000000  -6.358960  14.674500
                    CHANNELS 3 Zrotation Xrotation Yrotation
                    End Site
                    {
                        OFFSET   0.000000   0.000000   3.913200
                    }
                }
            }
        }
    }
}
MOTION
Frames: 6
Frame Time:   0.016667
 -0.543347  89.580700  -3.655280  -0.535208  -1.640130   1.396660   0.254165   2.836020  -0.417717   0.530034   5.670090  -0.849614  -1.075090   0.067052  -0.001142  -1.767310   0.135565   4.946530  -4.903670   1.256420   8.188440 -75.309300   5.468230  -0.090595   0.744951   7.514170 -19.834000   9.708880  -5.576440   1.887790  41.297500  34.919900 -51.095600 -31.700900   0.001377   0.000921 -10.850500  -0.005910  -0.002493 -43.780700  -2.914410   3.036990 -35.883800   0.002224  -0.001497 -25.890300  -0.008189  -0.001552 -35.098200  -3.564240   5.058040 -52.883400  -0.004017  -0.000211 -35.220300   0.000137  -0.000276 -30.685800  -5.054120   8.437140 -46.588700   0.001427   0.004658 -31.028100  -0.008420   0.000000 -42.160500  -6.630520   7.265680 -63.873200   0.000468  -0.000958 -42.539500   0.000701   0.004855   9.280670   4.557380   6.228330  68.892700  -0.187775  -1.723890   2.885870   0.821242  21.368700 -20.152800  -2.696960  -0.697322 -45.573000  39.857500  82.222400  13.489300  -0.007024   0.001811   1.744650   0.001647  -0.006094  44.919100  -1.793790  -1.798060  36.775100  -0.000261  -0.001186  26.735700  -0.006703  -0.001425  42.675900  -1.721330  -1.866120  54.423300  -0.002448  -0.000477  38.063100   0.004920   0.000000  39.016800  -1.598920  -1.971990  54.270500   0.001933   0.000876  36.983700   0.011356   0.001253  49.294300  -4.247700  -3.645940  74.144400  -0.002801   0.001025  49.380100   0.000310   0.001672   1.857440   2.469160  -0.880486   0.084471   0.540480  10.188200  -2.276040  -1.775430  -3.419160  -0.000000   0.000000   0.000000   0.135060   3.677140  -4.055600   0.625157   0.172187 -15.737100   0.096861  -2.288020  -1.891420   0.000000   0.000000   0.000000
 -0.543540  89.580600  -3.655320  -0.534625  -1.653210   1.408130   0.253916   2.840760  -0.417584   0.529544   5.679580  -0.849367  -1.075090   0.067020  -0.001093  -1.766970   0.135565   4.946760  -4.903700   1.255200   8.188440 -75.306500   5.513190  -0.087987   0.791334   7.508920 -19.866600   9.667450  -5.688190   1.916120  41.166900  34.695800 -50.992000 -31.705200   0.001414   0.000949 -10.852700  -0.005989  -0.002530 -43.856500  -2.917740   3.038400 -35.947200   0.002199  -0.001531 -25.950200  -0.008339  -0.001591 -35.136200  -3.564610   5.047930 -52.940100  -0.004074  -0.000222 -35.258100   0.000148  -0.000302 -30.716200  -5.054230   8.428660 -46.633600   0.001421   0.004593 -31.058000  -0.008458  -0.000024 -42.208500  -6.631270   7.254490 -63.944100   0.000479  -0.001013 -42.586800   0.000732   0.004852   9.301350   4.527780   6.252140  68.914900  -0.151318  -1.783970   2.898620   0.792208  21.417100 -20.147700  -2.655100  -0.655447 -45.451400  39.785400  82.144900  13.544600  -0.007003   0.001785   1.772320   0.001613  -0.006095  44.926500  -1.791760  -1.795900  36.780900  -0.000126  -0.001220  26.741200  -0.006772  -0.001467  42.706800  -1.719200  -1.863410  54.423200  -0.002478  -0.000463  38.071600   0.005029  -0.000055  39.079100  -1.597510  -1.968740  54.274600   0.001914   0.000890  37.003300   0.011421   0.001179  49.330900  -4.261900  -3.653330  74.200400  -0.002854   0.000993  49.417400   0.000186   0.001574   1.857620   2.482080  -0.880489   0.085148   0.535316  10.187200  -2.275420  -1.772350  -3.419040  -0.000000   0.000000  -0.000000   0.137127   3.694950  -4.067700   0.625022   0.172679 -15.729400   0.096686  -2.288420  -1.898290   0.000000   0.000000  -0.000000
 -0.543733  89.580500  -3.655400  -0.533711  -1.675990   1.424850   0.253711   2.851430  -0.417453   0.529229   5.700880  -0.849138  -1.075090   0.066791  -0.001011  -1.766630   0.135563   4.948360  -4.904170   1.248310   8.188420 -75.300800   5.588240  -0.069696   0.837516   7.478540 -19.959100   9.609360  -5.877530   1.985570  40.961400  34.352800 -50.790200 -31.709600   0.001471   0.000989 -10.854800  -0.006150  -0.002605 -43.934200  -2.941020   3.048230 -36.010600   0.002150  -0.001587 -26.010100  -0.008640  -0.001656 -35.174200  -3.565100   5.037820 -52.996900  -0.004188  -0.000241 -35.295900   0.000167  -0.000346 -30.759600  -5.054340   8.420190 -46.697800   0.001408   0.004462 -31.100700  -0.008533  -0.000063 -42.276100  -6.635480   7.243350 -64.044900   0.000497  -0.001104 -42.653900   0.000784   0.004845   9.342570   4.469440   6.300840  68.949800  -0.092628  -1.907830   2.939120   0.722472  21.556200 -20.126900  -2.575030  -0.562710 -45.272900  39.679500  82.032400  13.600000  -0.006963   0.001751   1.800000   0.001533  -0.006106  44.939200  -1.777540  -1.780760  36.791000   0.000126  -0.001278  26.750900  -0.006922  -0.001537  42.738600  -1.704290  -1.844440  54.423100  -0.002544  -0.000436  38.080100   0.005259  -0.000143  39.187100  -1.587670  -1.945930  54.281800   0.001876   0.000912  37.037300   0.011558   0.001056  49.386400  -4.283400  -3.664500  74.285300  -0.002961   0.000950  49.474000   0.000000   0.001411   1.857980   2.507140  -0.880469   0.085400   0.523989  10.183500  -2.274410  -1.767230  -3.418910  -0.000000   0.000000  -0.000000   0.140299   3.719620  -4.089130   0.624202   0.176087 -15.715700   0.097103  -2.291260  -1.905160   0.000000   0.000000  -0.000000
 -0.543676  89.580400  -3.655460  -0.533148  -1.694300   1.434410   0.254178   2.863210  -0.418064   0.530346   5.724450  -0.850423  -1.077380   0.065349  -0.000935  -1.770160   0.132823   4.952260  -4.923380   1.236730   8.163950 -75.291800   5.635880  -0.030786   0.826978   7.415040 -20.054200   9.583130  -6.049170   2.121530  40.862600  34.150700 -50.593000 -31.703600   0.001518   0.001017 -10.851800  -0.006366  -0.002710 -43.924600  -3.056810   3.156420 -36.009400   0.002085  -0.001643 -26.008600  -0.009034  -0.001721 -35.144700  -3.565250   5.045410 -52.972500  -0.004338  -0.000260 -35.272700   0.000186  -0.000390 -30.780100  -5.062780   8.429420 -46.730000   0.001392   0.004291 -31.122200  -0.008633  -0.000101 -42.300900  -6.648650   7.249770 -64.082500   0.000514  -0.001196 -42.678900   0.000836   0.004837   9.397760   4.400650   6.357420  68.978100  -0.040144  -2.056570   3.018010   0.589416  21.754400 -20.079600  -2.463980  -0.460306 -45.177900  39.618800  81.977800  13.453400  -0.006922   0.001740   1.726670   0.001424  -0.006134  44.955100  -1.699540  -1.701720  36.802800   0.000457  -0.001338  26.762100  -0.007132  -0.001606  42.698100  -1.641390  -1.777750  54.422900  -0.002635  -0.000402  38.068300   0.005573  -0.000220  39.250600  -1.534280  -1.871880  54.286600   0.001830   0.000934  37.057400   0.011745   0.000932  49.425300  -4.298380  -3.672280  74.344700  -0.003102   0.000931  49.513500  -0.000131   0.001247   1.860440   2.533450  -0.878406   0.082817   0.506849  10.175300  -2.273480  -1.762160  -3.418910   0.000000   0.000000  -0.000000   0.139162   3.724570  -4.110650   0.626509   0.212461 -15.702400   0.102411  -2.310800  -1.904900  -0.000000   0.000000   0.000000
 -0.543272  89.580400  -3.655540  -0.532592  -1.717740   1.438730   0.256993   2.883320  -0.422316   0.536310   5.764640  -0.859238  -1.085630   0.056036  -0.000890  -1.783570   0.113653   4.973010  -4.972210   1.211240   8.139440 -75.291200   5.708930   0.096842   0.792082   7.248030 -20.310300   9.575960  -6.197100   2.216650  40.736800  33.923500 -50.378100 -31.661700   0.001544   0.001032 -10.830800  -0.006557  -0.002795 -43.916100  -3.152610   3.256200 -36.008300   0.002027  -0.001677 -26.007000  -0.009389  -0.001760 -35.094500  -3.565270   5.053000 -52.948200  -0.004474  -0.000271 -35.249400   0.000198  -0.000416 -30.787500  -5.071210   8.438650 -46.742900   0.001377   0.004135 -31.130800  -0.008722  -0.000123 -42.318600  -6.658360   7.256140 -64.112100   0.000525  -0.001251 -42.698600   0.000867   0.004829   9.445130   4.327520   6.427450  68.993800  -0.009898  -2.234080   3.131530   0.496355  22.094400 -20.027900  -2.391170  -0.290435 -45.114400  39.588300  81.938500  13.306700  -0.006881   0.001739   1.653340   0.001289  -0.006170  44.969200  -1.566980  -1.569110  36.810100   0.000671  -0.001375  26.769100  -0.007355  -0.001648  42.605200  -1.562510  -1.699210  54.422800  -0.002732  -0.000370  38.042100   0.005888  -0.000263  39.384700  -1.467550  -1.783620  54.295700   0.001789   0.000947  37.099200   0.011931   0.000857  49.445300  -4.306060  -3.676260  74.375200  -0.003230   0.000925  49.533800  -0.000198   0.001149   1.864230   2.566210  -0.871745   0.078389   0.491181  10.165300  -2.272940  -1.759120  -3.418950   0.000000   0.000000   0.000000   0.135960   3.732100  -4.130260   0.629469   0.245927 -15.689100   0.107131  -2.327890  -1.904530   0.000000   0.000000   0.000000
 -0.538806  89.581000  -3.655650  -0.531836  -1.750830   1.438190   0.265486   2.917010  -0.441425   0.554557   5.831820  -0.898173  -1.102730   0.034443  -0.000893  -1.811630   0.070094   5.025860  -5.054940   1.165200   8.145290 -75.309400   5.847870   0.363266   0.609805   6.870610 -20.843800   9.641690  -6.244610   2.211430  40.504300  33.492800 -50.181600 -31.492600   0.001523   0.001014 -10.746200  -0.006621  -0.002814 -44.020800  -2.731470   2.740900 -36.058100   0.002003  -0.001654 -26.057800  -0.009519  -0.001734 -35.041600  -3.563990   5.047870 -53.134000  -0.004524  -0.000264 -35.283000   0.000190  -0.000398 -30.679900  -5.027780   8.417510 -46.645200   0.001372   0.004078 -31.053000  -0.008755  -0.000107 -42.338200  -6.625850   7.234730 -64.136400   0.000518  -0.001214 -42.714800   0.000846   0.004826   9.459830   4.263790   6.511990  68.972700  -0.040706  -2.425910   3.296050   0.501504  22.631700 -20.004300  -2.404150  -0.009897 -45.194300  39.590700  81.921100  13.505300  -0.006843   0.001752   1.752620   0.001132  -0.006207  44.963900  -1.432350  -1.437020  36.802200   0.000641  -0.001351  26.761800  -0.007562  -0.001620  42.440700  -1.504030  -1.654600  54.422900  -0.002824  -0.000355  37.996800   0.006117  -0.000230  39.608500  -1.429540  -1.727450  54.309500   0.001772   0.000939  37.166900   0.012067   0.000907  49.323700  -4.259680  -3.652410  74.189800  -0.003277   0.001054  49.410300  -0.000135   0.001214   1.866480   2.604890  -0.860550   0.074195   0.488063  10.156400  -2.274020  -1.764680  -3.419250  -0.000000   0.000000  -0.000000   0.136900   3.782000  -4.140210   0.629366   0.208046 -15.680000   0.102016  -2.310420  -1.904440   0.000000   0.000000   0.000000
